<svg width="260" height="268" viewBox="0 0 260 268" fill="none" xmlns="http://www.w3.org/2000/svg">
<mask id="mask0_2_36" style="mask-type:alpha" maskUnits="userSpaceOnUse" x="0" y="0" width="260" height="268">
<ellipse cx="130" cy="134" rx="130" ry="134" fill="#C4C4C4"/>
</mask>
<g mask="url(#mask0_2_36)">
<ellipse cx="126" cy="131.087" rx="134" ry="136.913" fill="#696892"/>
<ellipse cx="169.5" cy="114.094" rx="134.5" ry="127.688" fill="#1A1A1A"/>
<path d="M38 12.6232L41.5922 24.0294L53.2169 24.0294L43.8123 31.0788L47.4046 42.4851L38 35.4356L28.5954 42.4851L32.1877 31.0788L22.7831 24.0294L34.4078 24.0294L38 12.6232Z" fill="white"/>
<path d="M155.5 252.464L158.082 259.509H166.437L159.678 263.863L162.26 270.908L155.5 266.554L148.74 270.908L151.322 263.863L144.563 259.509H152.918L155.5 252.464Z" fill="white"/>
</g>
<path d="M79 106.638C79 100.457 81.4759 94.5294 85.883 90.159C90.2901 85.7886 96.2674 83.3333 102.5 83.3333C108.733 83.3333 114.71 85.7886 119.117 90.159C123.524 94.5294 126 100.457 126 106.638L122.177 106.638C122.177 101.463 120.103 96.4994 116.413 92.8401C112.723 89.1807 107.719 87.1249 102.5 87.1249C97.2815 87.1249 92.2766 89.1807 88.5866 92.8401C84.8965 96.4994 82.8234 101.463 82.8234 106.638L79 106.638Z" fill="white"/>
<path d="M173 106.638C173 100.457 175.476 94.5294 179.883 90.159C184.29 85.7886 190.267 83.3333 196.5 83.3333C202.733 83.3333 208.71 85.7886 213.117 90.159C217.524 94.5294 220 100.457 220 106.638L216.177 106.638C216.177 101.463 214.103 96.4994 210.413 92.8401C206.723 89.1807 201.719 87.1249 196.5 87.1249C191.281 87.1249 186.277 89.1807 182.587 92.8401C178.897 96.4994 176.823 101.463 176.823 106.638L173 106.638Z" fill="white"/>
<path d="M173 161.986C173 168.166 170.524 174.094 166.117 178.464C161.71 182.835 155.733 185.29 149.5 185.29C143.267 185.29 137.29 182.835 132.883 178.464C128.476 174.094 126 168.166 126 161.986L129.823 161.986C129.823 167.161 131.897 172.124 135.587 175.783C139.277 179.442 144.281 181.498 149.5 181.498C154.719 181.498 159.723 179.442 163.413 175.783C167.103 172.124 169.177 167.161 169.177 161.986H173Z" fill="white"/>
<ellipse cx="99.5" cy="255.862" rx="3.5" ry="3.39855" fill="white"/>
<ellipse cx="69.5" cy="20.8768" rx="3.5" ry="3.39855" fill="white"/>
<ellipse cx="10.5" cy="177.21" rx="3.5" ry="3.39855" fill="white"/>
<ellipse cx="29.5" cy="85.9348" rx="3.5" ry="3.39855" fill="white"/>
<ellipse cx="69.5" cy="208.283" rx="3.5" ry="3.39855" fill="white"/>
<ellipse cx="50.5" cy="228.674" rx="3.5" ry="3.39855" fill="white"/>
<ellipse cx="3.5" cy="126.717" rx="3.5" ry="3.39855" fill="white"/>
<ellipse cx="99.5" cy="235.471" rx="3.5" ry="3.39855" fill="white"/>
</svg>
