<svg width="126" height="39" viewBox="0 0 126 39" fill="none" xmlns="http://www.w3.org/2000/svg">
<path d="M18.7314 21.1973H19.6279C20.4658 21.1973 21.0928 21.0332 21.5088 20.7051C21.9248 20.3711 22.1328 19.8877 22.1328 19.2549C22.1328 18.6162 21.957 18.1445 21.6055 17.8398C21.2598 17.5352 20.7148 17.3828 19.9707 17.3828H18.7314V21.1973ZM24.8838 19.1582C24.8838 20.541 24.4502 21.5986 23.583 22.3311C22.7217 23.0635 21.4941 23.4297 19.9004 23.4297H18.7314V28H16.0068V15.1504H20.1113C21.6699 15.1504 22.8535 15.4873 23.6621 16.1611C24.4766 16.8291 24.8838 17.8281 24.8838 19.1582ZM32.583 17.9893C32.9463 17.9893 33.248 18.0156 33.4883 18.0684L33.2861 20.582C33.0693 20.5234 32.8057 20.4941 32.4951 20.4941C31.6396 20.4941 30.9717 20.7139 30.4912 21.1533C30.0166 21.5928 29.7793 22.208 29.7793 22.999V28H27.0986V18.1738H29.1289L29.5244 19.8262H29.6562C29.9609 19.2754 30.3711 18.833 30.8867 18.499C31.4082 18.1592 31.9736 17.9893 32.583 17.9893ZM37.4082 23.0693C37.4082 24.042 37.5664 24.7773 37.8828 25.2754C38.2051 25.7734 38.7266 26.0225 39.4473 26.0225C40.1621 26.0225 40.6748 25.7764 40.9854 25.2842C41.3018 24.7861 41.46 24.0479 41.46 23.0693C41.46 22.0967 41.3018 21.3672 40.9854 20.8809C40.6689 20.3945 40.1504 20.1514 39.4297 20.1514C38.7148 20.1514 38.1992 20.3945 37.8828 20.8809C37.5664 21.3613 37.4082 22.0908 37.4082 23.0693ZM44.2021 23.0693C44.2021 24.6689 43.7803 25.9199 42.9365 26.8223C42.0928 27.7246 40.918 28.1758 39.4121 28.1758C38.4688 28.1758 37.6367 27.9707 36.916 27.5605C36.1953 27.1445 35.6416 26.5498 35.2549 25.7764C34.8682 25.0029 34.6748 24.1006 34.6748 23.0693C34.6748 21.4639 35.0938 20.2158 35.9316 19.3252C36.7695 18.4346 37.9473 17.9893 39.4648 17.9893C40.4082 17.9893 41.2402 18.1943 41.9609 18.6045C42.6816 19.0146 43.2354 19.6035 43.6221 20.3711C44.0088 21.1387 44.2021 22.0381 44.2021 23.0693ZM51.8486 20.1865H49.5283V28H46.8477V20.1865H45.3711V18.8945L46.8477 18.1738V17.4531C46.8477 16.334 47.123 15.5166 47.6738 15.001C48.2246 14.4854 49.1064 14.2275 50.3193 14.2275C51.2451 14.2275 52.0684 14.3652 52.7891 14.6406L52.1035 16.6094C51.5645 16.4395 51.0664 16.3545 50.6094 16.3545C50.2285 16.3545 49.9531 16.4688 49.7832 16.6973C49.6133 16.9199 49.5283 17.207 49.5283 17.5586V18.1738H51.8486V20.1865ZM53.2725 15.6338C53.2725 14.7607 53.7588 14.3242 54.7314 14.3242C55.7041 14.3242 56.1904 14.7607 56.1904 15.6338C56.1904 16.0498 56.0674 16.375 55.8213 16.6094C55.5811 16.8379 55.2178 16.9521 54.7314 16.9521C53.7588 16.9521 53.2725 16.5127 53.2725 15.6338ZM56.0674 28H53.3867V18.1738H56.0674V28ZM61.5605 28H58.8799V14.3242H61.5605V28ZM68.4512 19.8965C67.8828 19.8965 67.4375 20.0781 67.1152 20.4414C66.793 20.7988 66.6084 21.3086 66.5615 21.9707H70.3232C70.3115 21.3086 70.1387 20.7988 69.8047 20.4414C69.4707 20.0781 69.0195 19.8965 68.4512 19.8965ZM68.8291 28.1758C67.2471 28.1758 66.0107 27.7393 65.1201 26.8662C64.2295 25.9932 63.7842 24.7568 63.7842 23.1572C63.7842 21.5107 64.1943 20.2393 65.0146 19.3428C65.8408 18.4404 66.9805 17.9893 68.4336 17.9893C69.8223 17.9893 70.9033 18.3848 71.6768 19.1758C72.4502 19.9668 72.8369 21.0596 72.8369 22.4541V23.7549H66.5C66.5293 24.5166 66.7549 25.1113 67.1768 25.5391C67.5986 25.9668 68.1904 26.1807 68.9521 26.1807C69.5439 26.1807 70.1035 26.1191 70.6309 25.9961C71.1582 25.873 71.709 25.6768 72.2832 25.4072V27.4814C71.8145 27.7158 71.3135 27.8887 70.7803 28C70.2471 28.1172 69.5967 28.1758 68.8291 28.1758Z" fill="white"/>
<circle cx="107" cy="19" r="19" fill="#C4C4C4"/>
</svg>
