<svg width="72" height="35" viewBox="0 0 72 35" fill="none" xmlns="http://www.w3.org/2000/svg">
<path d="M2.49512 21.7988C2.3584 22.5898 1.95801 22.9902 1.29395 23C1.06934 23 0.869141 22.9414 0.693359 22.8242C0.302734 22.5703 0.107422 22.1553 0.107422 21.5791C0.546875 17.9072 1.43066 11.1836 2.75879 1.4082C2.78809 1.21289 2.89062 1.03223 3.06641 0.866211C3.39844 0.563477 3.80371 0.412109 4.28223 0.412109C5.15137 0.246094 6.1084 0.163086 7.15332 0.163086C7.89551 0.163086 8.5791 0.216797 9.2041 0.324219C11.9482 0.822266 13.3203 2.33594 13.3203 4.86523C13.3203 5.85156 13.1592 6.77441 12.8369 7.63379C11.8506 10.2803 9.42383 12.209 5.55664 13.4199L13.6426 20.8027C13.9648 21.1445 14.1309 21.4961 14.1406 21.8574C14.1406 22.0527 14.0869 22.248 13.9795 22.4434C13.7451 22.8145 13.4277 23 13.0273 23C12.7148 23 12.3975 22.8926 12.0752 22.6777C11.8506 22.5215 8.96484 19.8896 3.41797 14.7822C2.92969 18.6689 2.62207 21.0078 2.49512 21.7988ZM4.98535 2.55078C4.98535 2.55078 4.60938 5.47559 3.85742 11.3252C5.24414 11.1201 6.55273 10.666 7.7832 9.96289C9.92188 8.71289 10.9912 7.0332 10.9912 4.92383C10.9814 3.23438 9.70215 2.37988 7.15332 2.36035C6.95801 2.36035 6.23535 2.42383 4.98535 2.55078ZM19.5166 11.6475C19.5166 11.9307 19.4678 12.541 19.3701 13.4785C19.0674 16.252 18.916 17.9756 18.916 18.6494C18.916 19.0986 19.0088 19.5186 19.1943 19.9092C19.4678 20.4951 19.834 20.7881 20.293 20.7881C20.3906 20.7881 20.4932 20.7783 20.6006 20.7588C20.8838 20.6904 21.2939 20.4609 21.8311 20.0703C22.3584 19.6797 22.7832 19.4844 23.1055 19.4844C23.2422 19.4844 23.3789 19.5332 23.5156 19.6309C23.7891 19.8262 23.9258 20.085 23.9258 20.4072C23.8867 20.9053 23.501 21.4326 22.7686 21.9893C21.8701 22.6143 20.9277 22.9268 19.9414 22.9268C19.1113 22.9268 18.4229 22.6387 17.876 22.0625C17.0557 21.1836 16.6455 19.7871 16.6455 17.873C16.6455 17.2188 16.7773 15.9395 17.041 14.0352C17.1582 13.1465 17.2412 12.4922 17.29 12.0723C17.2998 11.9844 17.3096 11.8965 17.3193 11.8086C17.4756 10.832 17.876 10.3438 18.5205 10.3438C18.6279 10.3438 18.7354 10.3535 18.8428 10.373C19.292 10.4805 19.5166 10.9053 19.5166 11.6475ZM17.8467 7.80957C17.8467 7.63379 17.8857 7.46777 17.9639 7.31152C18.1592 6.93066 18.4766 6.74023 18.916 6.74023C19.0918 6.74023 19.2578 6.7793 19.4141 6.85742C19.7949 7.05273 19.9854 7.37012 19.9854 7.80957C19.9854 7.98535 19.9463 8.15137 19.8682 8.30762C19.6729 8.68848 19.3555 8.87891 18.916 8.87891C18.7402 8.87891 18.5742 8.83984 18.418 8.76172C18.0371 8.56641 17.8467 8.24902 17.8467 7.80957ZM22.9297 18.9424C22.8809 18.7959 22.8564 18.6201 22.8564 18.415C22.8564 18.2393 22.8906 18.0732 22.959 17.917C23.1348 17.5361 23.4229 17.3457 23.8232 17.3457C24.1943 17.3555 24.5508 17.5703 24.8926 17.9902C25 18.127 25.1025 18.2539 25.2002 18.3711C26.5674 20.0508 27.876 20.8906 29.126 20.8906C30.3564 20.8906 31.4111 20.4463 32.29 19.5576C33.1494 18.6787 33.5791 17.6338 33.5791 16.4229C33.5693 15.3779 33.2959 14.4893 32.7588 13.7568C32.3291 13.1611 31.5674 12.5459 30.4736 11.9111C29.3213 11.2373 28.6328 10.8223 28.4082 10.666C27.9004 10.3145 27.4707 9.95312 27.1191 9.58203C26.2305 8.64453 25.7861 7.4873 25.7861 6.11035C25.7861 5.93457 25.7959 5.74902 25.8154 5.55371C25.9521 4.06934 26.5625 2.81934 27.6465 1.80371C28.7598 0.77832 30.0684 0.265625 31.5723 0.265625C32.2168 0.265625 32.8467 0.368164 33.4619 0.573242C34.7412 1.0127 35.7275 1.77441 36.4209 2.8584C36.5381 3.15137 36.5967 3.36621 36.5967 3.50293C36.5967 3.67871 36.5479 3.85449 36.4502 4.03027C36.2354 4.3916 35.9277 4.57227 35.5273 4.57227C35.1758 4.57227 34.9268 4.47949 34.7803 4.29395C33.7842 3.09277 32.7148 2.4873 31.5723 2.47754C30.6738 2.47754 29.8779 2.80469 29.1846 3.45898C28.4131 4.19141 28.0273 5.08496 28.0273 6.13965C28.0273 6.79395 28.2275 7.37988 28.6279 7.89746C28.9893 8.36621 29.6973 8.91797 30.752 9.55273C31.9043 10.2363 32.7637 10.8076 33.3301 11.2666C35.1465 12.7314 36.0547 14.4502 36.0547 16.4229C36.0547 16.8623 36.0107 17.3018 35.9229 17.7412C35.6006 19.2939 34.7949 20.5879 33.5059 21.623C32.1973 22.6777 30.7373 23.2051 29.126 23.2051C28.0811 23.2051 27.0703 22.9316 26.0938 22.3848C24.7461 21.6133 23.6914 20.4658 22.9297 18.9424ZM40.8154 10.4463C41.4404 10.4561 41.7627 10.8369 41.7822 11.5889C41.7822 11.7354 41.7432 12.0527 41.665 12.541C41.333 14.7188 41.167 16.2959 41.167 17.2725C41.167 19.3818 41.7041 20.4463 42.7783 20.4658C43.0127 20.4463 43.2373 20.3682 43.4521 20.2314C44.3604 19.6455 45.0439 17.7705 45.5029 14.6064C45.6201 13.7861 45.7031 12.873 45.752 11.8672C45.7617 11.7695 45.7666 11.7109 45.7666 11.6914C45.7764 11.623 45.7861 11.5596 45.7959 11.501C45.9131 10.8467 46.2793 10.5195 46.8945 10.5195C47.0117 10.5195 47.1289 10.5391 47.2461 10.5781C47.6855 10.7344 47.9053 11.1543 47.9053 11.8379C47.9053 11.916 47.9004 12.0234 47.8906 12.1602C47.8906 12.248 47.8906 12.3066 47.8906 12.3359L46.4111 23.1318C48.7646 21.3643 50.1514 20.2998 50.5713 19.9385C50.9521 19.626 51.3281 19.4697 51.6992 19.4697C51.8262 19.4697 51.958 19.5088 52.0947 19.5869C52.3779 19.7725 52.5195 20.0215 52.5195 20.334C52.5098 20.793 52.2412 21.2471 51.7139 21.6963C50.7275 22.5361 48.8232 24.0352 46.001 26.1934L45.3418 31.0127C45.1758 32.165 44.6484 33.0391 43.7598 33.6348C43.1348 34.0449 42.4951 34.25 41.8408 34.25C40.9424 34.25 40.1465 33.9131 39.4531 33.2393C38.7793 32.5654 38.4424 31.8086 38.4424 30.9688C38.4424 30.0801 38.6621 29.3574 39.1016 28.8008C39.3262 28.5176 39.7803 28.1221 40.4639 27.6143C40.5518 27.5166 41.7236 26.6328 43.9795 24.9629C44.1064 24.084 44.2383 23.2295 44.375 22.3994C43.8086 22.6631 43.1543 22.7949 42.4121 22.7949C42.0605 22.7949 41.7285 22.751 41.416 22.6631C39.707 22.1455 38.8525 20.2656 38.8525 17.0234C38.8623 15.4121 39.0332 13.8447 39.3652 12.3213C39.6387 11.1396 40.1221 10.5146 40.8154 10.4463ZM43.2617 29.8555C43.2617 29.8555 43.3447 29.2549 43.5107 28.0537C42.5049 28.8154 41.9629 29.2305 41.8848 29.2988C41.1816 29.8457 40.8252 30.3438 40.8154 30.793C40.8154 30.959 40.8447 31.1201 40.9033 31.2764C41.0693 31.7061 41.3818 31.9209 41.8408 31.9209C42.0166 31.9209 42.1729 31.8916 42.3096 31.833C42.7979 31.6475 43.1152 30.9883 43.2617 29.8555ZM50.5566 21.4766C50.5566 21.4766 50.9717 18.3418 51.8018 12.0723C51.8213 11.9062 51.8457 11.75 51.875 11.6035C52.0508 10.7637 52.4316 10.3438 53.0176 10.3438C53.125 10.3438 53.2324 10.3535 53.3398 10.373C53.7891 10.4805 54.0137 10.9053 54.0137 11.6475C54.0137 11.7549 54.0039 11.9404 53.9844 12.2041C53.9746 12.3799 53.9697 12.5166 53.9697 12.6143C53.9893 12.5752 54.0137 12.5361 54.043 12.4971C54.7656 11.2178 55.7959 10.5781 57.1338 10.5781C57.6123 10.5781 58.0518 10.7197 58.4521 11.0029C59.0479 11.4424 59.3457 12.0234 59.3457 12.7461C59.3457 12.8633 59.3408 13.1416 59.3311 13.5811C59.3213 14.5771 59.3164 15.3682 59.3164 15.9541C59.3164 17.9463 59.375 19.1182 59.4922 19.4697C59.5215 19.5479 59.5508 19.6309 59.5801 19.7188C59.8535 20.4609 60.2393 20.832 60.7373 20.832C60.8252 20.832 60.9229 20.8223 61.0303 20.8027C61.3232 20.7441 61.7432 20.5146 62.29 20.1143C62.8271 19.7334 63.2568 19.543 63.5791 19.543C63.7061 19.543 63.8281 19.5771 63.9453 19.6455C64.248 19.8213 64.3994 20.1094 64.3994 20.5098C64.3408 20.9883 63.9307 21.5156 63.1689 22.0918C62.2705 22.6973 61.3672 23 60.459 23C59.7266 23 59.1064 22.7998 58.5986 22.3994C57.5537 21.5596 57.0312 19.7188 57.0312 16.877C57.0312 16.6719 57.0361 16.3398 57.0459 15.8809C57.0654 15.4023 57.0752 15.002 57.0752 14.6797C57.0752 13.6348 56.958 13.0977 56.7236 13.0684C56.6846 13.0684 56.6357 13.0781 56.5771 13.0977C56.0205 13.3027 55.3076 14.4111 54.4385 16.4229C53.6768 18.1904 53.1885 19.6602 52.9736 20.832L52.9443 21.2568C52.915 21.6084 52.8174 21.9307 52.6514 22.2236C52.3682 22.6924 52.0166 22.9268 51.5967 22.9268C51.4795 22.9268 51.3623 22.9023 51.2451 22.8535C50.7861 22.6387 50.5566 22.1797 50.5566 21.4766ZM62.1875 18.2686C62.1875 17.9365 62.207 17.585 62.2461 17.2139C62.4512 15.5439 62.9785 14.0596 63.8281 12.7607C64.873 11.1689 66.123 10.373 67.5781 10.373C67.7734 10.373 67.9834 10.3877 68.208 10.417C69.2432 10.5635 69.7803 10.9395 69.8193 11.5449C69.8096 12.0137 69.3945 12.2627 68.5742 12.292H68.0762C67.8906 12.292 67.71 12.3164 67.5342 12.3652C66.6357 12.6289 65.874 13.4443 65.249 14.8115C64.6729 16.0713 64.3848 17.3408 64.3848 18.6201C64.3848 19.2744 64.4971 19.7676 64.7217 20.0996C64.9854 20.4707 65.5127 20.6904 66.3037 20.7588C66.6455 20.7588 66.9873 20.7197 67.3291 20.6416C67.9541 20.5049 68.6914 20.1582 69.541 19.6016C70.0977 19.2402 70.4883 19.0596 70.7129 19.0596C70.8496 19.0596 70.9863 19.1035 71.123 19.1914C71.4258 19.3867 71.5771 19.6602 71.5771 20.0117C71.5771 20.1191 71.5527 20.2363 71.5039 20.3633C71.25 20.9395 70.5371 21.5059 69.3652 22.0625C68.0957 22.6582 66.9238 22.9561 65.8496 22.9561C63.4277 22.9463 62.207 21.3838 62.1875 18.2686Z" fill="white"/>
</svg>
