<svg width="171" height="46" viewBox="0 0 171 46" fill="none" xmlns="http://www.w3.org/2000/svg">
<path d="M65.4951 30.7988C65.3584 31.5898 64.958 31.9902 64.2939 32C64.0693 32 63.8691 31.9414 63.6934 31.8242C63.3027 31.5703 63.1074 31.1553 63.1074 30.5791C63.5469 26.9072 64.4307 20.1836 65.7588 10.4082C65.7881 10.2129 65.8906 10.0322 66.0664 9.86621C66.3984 9.56348 66.8037 9.41211 67.2822 9.41211C68.1514 9.24609 69.1084 9.16309 70.1533 9.16309C70.8955 9.16309 71.5791 9.2168 72.2041 9.32422C74.9482 9.82227 76.3203 11.3359 76.3203 13.8652C76.3203 14.8516 76.1592 15.7744 75.8369 16.6338C74.8506 19.2803 72.4238 21.209 68.5566 22.4199L76.6426 29.8027C76.9648 30.1445 77.1309 30.4961 77.1406 30.8574C77.1406 31.0527 77.0869 31.248 76.9795 31.4434C76.7451 31.8145 76.4277 32 76.0273 32C75.7148 32 75.3975 31.8926 75.0752 31.6777C74.8506 31.5215 71.9648 28.8896 66.418 23.7822C65.9297 27.6689 65.6221 30.0078 65.4951 30.7988ZM67.9854 11.5508C67.9854 11.5508 67.6094 14.4756 66.8574 20.3252C68.2441 20.1201 69.5527 19.666 70.7832 18.9629C72.9219 17.7129 73.9912 16.0332 73.9912 13.9238C73.9814 12.2344 72.7021 11.3799 70.1533 11.3604C69.958 11.3604 69.2354 11.4238 67.9854 11.5508ZM82.5166 20.6475C82.5166 20.9307 82.4678 21.541 82.3701 22.4785C82.0674 25.252 81.916 26.9756 81.916 27.6494C81.916 28.0986 82.0088 28.5186 82.1943 28.9092C82.4678 29.4951 82.834 29.7881 83.293 29.7881C83.3906 29.7881 83.4932 29.7783 83.6006 29.7588C83.8838 29.6904 84.2939 29.4609 84.8311 29.0703C85.3584 28.6797 85.7832 28.4844 86.1055 28.4844C86.2422 28.4844 86.3789 28.5332 86.5156 28.6309C86.7891 28.8262 86.9258 29.085 86.9258 29.4072C86.8867 29.9053 86.501 30.4326 85.7686 30.9893C84.8701 31.6143 83.9277 31.9268 82.9414 31.9268C82.1113 31.9268 81.4229 31.6387 80.876 31.0625C80.0557 30.1836 79.6455 28.7871 79.6455 26.873C79.6455 26.2188 79.7773 24.9395 80.041 23.0352C80.1582 22.1465 80.2412 21.4922 80.29 21.0723C80.2998 20.9844 80.3096 20.8965 80.3193 20.8086C80.4756 19.832 80.876 19.3438 81.5205 19.3438C81.6279 19.3438 81.7354 19.3535 81.8428 19.373C82.292 19.4805 82.5166 19.9053 82.5166 20.6475ZM80.8467 16.8096C80.8467 16.6338 80.8857 16.4678 80.9639 16.3115C81.1592 15.9307 81.4766 15.7402 81.916 15.7402C82.0918 15.7402 82.2578 15.7793 82.4141 15.8574C82.7949 16.0527 82.9854 16.3701 82.9854 16.8096C82.9854 16.9854 82.9463 17.1514 82.8682 17.3076C82.6729 17.6885 82.3555 17.8789 81.916 17.8789C81.7402 17.8789 81.5742 17.8398 81.418 17.7617C81.0371 17.5664 80.8467 17.249 80.8467 16.8096ZM85.9297 27.9424C85.8809 27.7959 85.8564 27.6201 85.8564 27.415C85.8564 27.2393 85.8906 27.0732 85.959 26.917C86.1348 26.5361 86.4229 26.3457 86.8232 26.3457C87.1943 26.3555 87.5508 26.5703 87.8926 26.9902C88 27.127 88.1025 27.2539 88.2002 27.3711C89.5674 29.0508 90.876 29.8906 92.126 29.8906C93.3564 29.8906 94.4111 29.4463 95.29 28.5576C96.1494 27.6787 96.5791 26.6338 96.5791 25.4229C96.5693 24.3779 96.2959 23.4893 95.7588 22.7568C95.3291 22.1611 94.5674 21.5459 93.4736 20.9111C92.3213 20.2373 91.6328 19.8223 91.4082 19.666C90.9004 19.3145 90.4707 18.9531 90.1191 18.582C89.2305 17.6445 88.7861 16.4873 88.7861 15.1104C88.7861 14.9346 88.7959 14.749 88.8154 14.5537C88.9521 13.0693 89.5625 11.8193 90.6465 10.8037C91.7598 9.77832 93.0684 9.26562 94.5723 9.26562C95.2168 9.26562 95.8467 9.36816 96.4619 9.57324C97.7412 10.0127 98.7275 10.7744 99.4209 11.8584C99.5381 12.1514 99.5967 12.3662 99.5967 12.5029C99.5967 12.6787 99.5479 12.8545 99.4502 13.0303C99.2354 13.3916 98.9277 13.5723 98.5273 13.5723C98.1758 13.5723 97.9268 13.4795 97.7803 13.2939C96.7842 12.0928 95.7148 11.4873 94.5723 11.4775C93.6738 11.4775 92.8779 11.8047 92.1846 12.459C91.4131 13.1914 91.0273 14.085 91.0273 15.1396C91.0273 15.7939 91.2275 16.3799 91.6279 16.8975C91.9893 17.3662 92.6973 17.918 93.752 18.5527C94.9043 19.2363 95.7637 19.8076 96.3301 20.2666C98.1465 21.7314 99.0547 23.4502 99.0547 25.4229C99.0547 25.8623 99.0107 26.3018 98.9229 26.7412C98.6006 28.2939 97.7949 29.5879 96.5059 30.623C95.1973 31.6777 93.7373 32.2051 92.126 32.2051C91.0811 32.2051 90.0703 31.9316 89.0938 31.3848C87.7461 30.6133 86.6914 29.4658 85.9297 27.9424ZM103.815 19.4463C104.44 19.4561 104.763 19.8369 104.782 20.5889C104.782 20.7354 104.743 21.0527 104.665 21.541C104.333 23.7188 104.167 25.2959 104.167 26.2725C104.167 28.3818 104.704 29.4463 105.778 29.4658C106.013 29.4463 106.237 29.3682 106.452 29.2314C107.36 28.6455 108.044 26.7705 108.503 23.6064C108.62 22.7861 108.703 21.873 108.752 20.8672C108.762 20.7695 108.767 20.7109 108.767 20.6914C108.776 20.623 108.786 20.5596 108.796 20.501C108.913 19.8467 109.279 19.5195 109.895 19.5195C110.012 19.5195 110.129 19.5391 110.246 19.5781C110.686 19.7344 110.905 20.1543 110.905 20.8379C110.905 20.916 110.9 21.0234 110.891 21.1602C110.891 21.248 110.891 21.3066 110.891 21.3359L109.411 32.1318C111.765 30.3643 113.151 29.2998 113.571 28.9385C113.952 28.626 114.328 28.4697 114.699 28.4697C114.826 28.4697 114.958 28.5088 115.095 28.5869C115.378 28.7725 115.52 29.0215 115.52 29.334C115.51 29.793 115.241 30.2471 114.714 30.6963C113.728 31.5361 111.823 33.0352 109.001 35.1934L108.342 40.0127C108.176 41.165 107.648 42.0391 106.76 42.6348C106.135 43.0449 105.495 43.25 104.841 43.25C103.942 43.25 103.146 42.9131 102.453 42.2393C101.779 41.5654 101.442 40.8086 101.442 39.9688C101.442 39.0801 101.662 38.3574 102.102 37.8008C102.326 37.5176 102.78 37.1221 103.464 36.6143C103.552 36.5166 104.724 35.6328 106.979 33.9629C107.106 33.084 107.238 32.2295 107.375 31.3994C106.809 31.6631 106.154 31.7949 105.412 31.7949C105.061 31.7949 104.729 31.751 104.416 31.6631C102.707 31.1455 101.853 29.2656 101.853 26.0234C101.862 24.4121 102.033 22.8447 102.365 21.3213C102.639 20.1396 103.122 19.5146 103.815 19.4463ZM106.262 38.8555C106.262 38.8555 106.345 38.2549 106.511 37.0537C105.505 37.8154 104.963 38.2305 104.885 38.2988C104.182 38.8457 103.825 39.3438 103.815 39.793C103.815 39.959 103.845 40.1201 103.903 40.2764C104.069 40.7061 104.382 40.9209 104.841 40.9209C105.017 40.9209 105.173 40.8916 105.31 40.833C105.798 40.6475 106.115 39.9883 106.262 38.8555ZM113.557 30.4766C113.557 30.4766 113.972 27.3418 114.802 21.0723C114.821 20.9062 114.846 20.75 114.875 20.6035C115.051 19.7637 115.432 19.3438 116.018 19.3438C116.125 19.3438 116.232 19.3535 116.34 19.373C116.789 19.4805 117.014 19.9053 117.014 20.6475C117.014 20.7549 117.004 20.9404 116.984 21.2041C116.975 21.3799 116.97 21.5166 116.97 21.6143C116.989 21.5752 117.014 21.5361 117.043 21.4971C117.766 20.2178 118.796 19.5781 120.134 19.5781C120.612 19.5781 121.052 19.7197 121.452 20.0029C122.048 20.4424 122.346 21.0234 122.346 21.7461C122.346 21.8633 122.341 22.1416 122.331 22.5811C122.321 23.5771 122.316 24.3682 122.316 24.9541C122.316 26.9463 122.375 28.1182 122.492 28.4697C122.521 28.5479 122.551 28.6309 122.58 28.7188C122.854 29.4609 123.239 29.832 123.737 29.832C123.825 29.832 123.923 29.8223 124.03 29.8027C124.323 29.7441 124.743 29.5146 125.29 29.1143C125.827 28.7334 126.257 28.543 126.579 28.543C126.706 28.543 126.828 28.5771 126.945 28.6455C127.248 28.8213 127.399 29.1094 127.399 29.5098C127.341 29.9883 126.931 30.5156 126.169 31.0918C125.271 31.6973 124.367 32 123.459 32C122.727 32 122.106 31.7998 121.599 31.3994C120.554 30.5596 120.031 28.7188 120.031 25.877C120.031 25.6719 120.036 25.3398 120.046 24.8809C120.065 24.4023 120.075 24.002 120.075 23.6797C120.075 22.6348 119.958 22.0977 119.724 22.0684C119.685 22.0684 119.636 22.0781 119.577 22.0977C119.021 22.3027 118.308 23.4111 117.438 25.4229C116.677 27.1904 116.188 28.6602 115.974 29.832L115.944 30.2568C115.915 30.6084 115.817 30.9307 115.651 31.2236C115.368 31.6924 115.017 31.9268 114.597 31.9268C114.479 31.9268 114.362 31.9023 114.245 31.8535C113.786 31.6387 113.557 31.1797 113.557 30.4766ZM125.188 27.2686C125.188 26.9365 125.207 26.585 125.246 26.2139C125.451 24.5439 125.979 23.0596 126.828 21.7607C127.873 20.1689 129.123 19.373 130.578 19.373C130.773 19.373 130.983 19.3877 131.208 19.417C132.243 19.5635 132.78 19.9395 132.819 20.5449C132.81 21.0137 132.395 21.2627 131.574 21.292H131.076C130.891 21.292 130.71 21.3164 130.534 21.3652C129.636 21.6289 128.874 22.4443 128.249 23.8115C127.673 25.0713 127.385 26.3408 127.385 27.6201C127.385 28.2744 127.497 28.7676 127.722 29.0996C127.985 29.4707 128.513 29.6904 129.304 29.7588C129.646 29.7588 129.987 29.7197 130.329 29.6416C130.954 29.5049 131.691 29.1582 132.541 28.6016C133.098 28.2402 133.488 28.0596 133.713 28.0596C133.85 28.0596 133.986 28.1035 134.123 28.1914C134.426 28.3867 134.577 28.6602 134.577 29.0117C134.577 29.1191 134.553 29.2363 134.504 29.3633C134.25 29.9395 133.537 30.5059 132.365 31.0625C131.096 31.6582 129.924 31.9561 128.85 31.9561C126.428 31.9463 125.207 30.3838 125.188 27.2686Z" fill="white"/>
<mask id="mask0_109_2" style="mask-type:alpha" maskUnits="userSpaceOnUse" x="0" y="1" width="38" height="38">
<circle cx="19" cy="20" r="19" fill="#C4C4C4"/>
</mask>
<g mask="url(#mask0_109_2)">
<ellipse cx="18.4154" cy="19.587" rx="19.5846" ry="19.413" fill="#696892"/>
<ellipse cx="24.773" cy="17.1775" rx="19.6577" ry="18.1051" fill="#1A1A1A"/>
<path d="M5.55385 2.78986L6.07887 4.40716H7.77786L6.40335 5.4067L6.92837 7.024L5.55385 6.02446L4.17934 7.024L4.70436 5.4067L3.32985 4.40716H5.02884L5.55385 2.78986Z" fill="white"/>
<path d="M22.7269 36.7971L23.1043 37.796H24.3254L23.3375 38.4134L23.7148 39.4123L22.7269 38.7949L21.739 39.4123L22.1163 38.4134L21.1284 37.796H22.3496L22.7269 36.7971Z" fill="white"/>
</g>
<path d="M11.5461 16.1203C11.5461 15.2439 11.908 14.4034 12.5521 13.7837C13.1962 13.1641 14.0698 12.8159 14.9808 12.8159C15.8917 12.8159 16.7653 13.1641 17.4094 13.7837C18.0535 14.4034 18.4154 15.2439 18.4154 16.1203L17.8566 16.1203C17.8566 15.3865 17.5536 14.6828 17.0143 14.1639C16.4749 13.645 15.7435 13.3535 14.9808 13.3535C14.218 13.3535 13.4866 13.645 12.9473 14.1639C12.4079 14.6828 12.105 15.3865 12.105 16.1203L11.5461 16.1203Z" fill="white"/>
<path d="M25.2846 16.1203C25.2846 15.2439 25.6465 14.4034 26.2906 13.7837C26.9347 13.1641 27.8083 12.8159 28.7192 12.8159C29.6301 12.8159 30.5037 13.1641 31.1479 13.7837C31.792 14.4034 32.1538 15.2439 32.1538 16.1203L31.595 16.1203C31.595 15.3865 31.292 14.6828 30.7527 14.1639C30.2134 13.645 29.4819 13.3535 28.7192 13.3535C27.9565 13.3535 27.225 13.645 26.6857 14.1639C26.1464 14.6828 25.8434 15.3865 25.8434 16.1203L25.2846 16.1203Z" fill="white"/>
<path d="M25.2846 23.9681C25.2846 24.8445 24.9228 25.6849 24.2787 26.3046C23.6345 26.9243 22.7609 27.2725 21.85 27.2725C20.9391 27.2725 20.0655 26.9243 19.4214 26.3046C18.7773 25.6849 18.4154 24.8445 18.4154 23.9681L18.9742 23.9681C18.9742 24.7019 19.2772 25.4056 19.8165 25.9245C20.3558 26.4433 21.0873 26.7348 21.85 26.7348C22.6127 26.7348 23.3442 26.4433 23.8835 25.9245C24.4228 25.4056 24.7258 24.7019 24.7258 23.9681H25.2846Z" fill="white"/>
<ellipse cx="14.5423" cy="37.279" rx="0.511538" ry="0.481884" fill="white"/>
<ellipse cx="10.1577" cy="3.96016" rx="0.511538" ry="0.481884" fill="white"/>
<ellipse cx="1.53461" cy="26.1268" rx="0.511538" ry="0.481884" fill="white"/>
<ellipse cx="4.31153" cy="13.1848" rx="0.511538" ry="0.481884" fill="white"/>
<ellipse cx="10.1577" cy="30.5326" rx="0.511538" ry="0.481884" fill="white"/>
<ellipse cx="7.3808" cy="33.4239" rx="0.511538" ry="0.481884" fill="white"/>
<ellipse cx="0.511538" cy="18.9674" rx="0.511538" ry="0.481884" fill="white"/>
<ellipse cx="14.5423" cy="34.3877" rx="0.511538" ry="0.481884" fill="white"/>
</svg>
